<svg width="24" height="24" viewBox="0 0 24 24" fill="none" xmlns="http://www.w3.org/2000/svg">
<path fill-rule="evenodd" clip-rule="evenodd" d="M20 14.5263C20 16.7368 18.7692 18 16.6154 18H7.38462C5.23077 18 4 16.7368 4 14.5263V9.47368C4 7.26316 5.23077 6 7.38462 6H16.6154C18.7692 6 20 7.26316 20 9.47368V14.5263ZM7.38462 7.57895C6.36501 7.57895 5.53846 8.42725 5.53846 9.47368V14.5263C5.53846 15.5727 6.36501 16.4211 7.38462 16.4211H16.6154C17.635 16.4211 18.4615 15.5727 18.4615 14.5263V9.47368C18.4615 8.42725 17.635 7.57895 16.6154 7.57895H7.38462Z" fill="#E9E9E9"/>
<path d="M6.46154 10.7368V9.15789C6.46154 8.80908 6.73706 8.52632 7.07692 8.52632H8.61538C8.95525 8.52632 9.23077 8.80908 9.23077 9.15789C9.23077 9.50671 8.95525 9.78947 8.61538 9.78947H7.69231V10.7368C7.69231 11.0857 7.41679 11.3684 7.07692 11.3684C6.73706 11.3684 6.46154 11.0857 6.46154 10.7368Z" fill="#E9E9E9"/>
<path d="M17.5385 13.2632V14.8421C17.5385 15.1909 17.2629 15.4737 16.9231 15.4737H15.3846C15.0447 15.4737 14.7692 15.1909 14.7692 14.8421C14.7692 14.4933 15.0447 14.2105 15.3846 14.2105H16.3077V13.2632C16.3077 12.9143 16.5832 12.6316 16.9231 12.6316C17.2629 12.6316 17.5385 12.9143 17.5385 13.2632Z" fill="#E9E9E9"/>
</svg>
