<svg width="24" height="24" viewBox="0 0 24 24" fill="none" xmlns="http://www.w3.org/2000/svg">
<path d="M7.5 18.5455H16.5V8.36364H13.5C13.0858 8.36364 12.75 8.03803 12.75 7.63636V5.45455H7.5V18.5455ZM9.78809 14.679C9.91907 14.2979 10.3443 14.0917 10.7373 14.2188C11.1303 14.3458 11.3429 14.7582 11.2119 15.1392L10.4619 17.321C10.3309 17.7021 9.90565 17.9083 9.5127 17.7812C9.11974 17.6542 8.9071 17.2418 9.03809 16.8608L9.78809 14.679ZM13.2627 14.2188C13.6557 14.0917 14.0809 14.2979 14.2119 14.679L14.9619 16.8608C15.0929 17.2418 14.8803 17.6542 14.4873 17.7812C14.0943 17.9083 13.6691 17.7021 13.5381 17.321L12.7881 15.1392C12.6571 14.7582 12.8697 14.3458 13.2627 14.2188ZM12 10.5455C12.245 10.5455 12.5956 10.6109 12.9067 10.8281C13.2561 11.0721 13.5 11.4721 13.5 12C13.5 12.5279 13.2561 12.9279 12.9067 13.1719C12.5956 13.3891 12.245 13.4545 12 13.4545C11.755 13.4545 11.4044 13.3891 11.0933 13.1719C10.7439 12.9279 10.5 12.5279 10.5 12C10.5 11.4721 10.7439 11.0721 11.0933 10.8281C11.4044 10.6109 11.755 10.5455 12 10.5455ZM11.25 9.09091V8.36364C11.25 7.96197 11.5858 7.63636 12 7.63636C12.4142 7.63636 12.75 7.96197 12.75 8.36364V9.09091C12.75 9.49257 12.4142 9.81818 12 9.81818C11.5858 9.81818 11.25 9.49257 11.25 9.09091ZM14.25 6.90909H15.1113L14.25 6.24006V6.90909ZM18 19.2727C18 19.6744 17.6642 20 17.25 20H6.75C6.33579 20 6 19.6744 6 19.2727V4.72727C6 4.32561 6.33579 4 6.75 4H13.5C13.6703 4 13.8358 4.05593 13.9688 4.15909L17.7188 7.06818C17.8967 7.2062 18 7.41543 18 7.63636V19.2727Z" fill="#E9E9E9"/>
</svg>
