<svg width="24" height="24" viewBox="0 0 24 24" fill="none" xmlns="http://www.w3.org/2000/svg">
<path d="M7.2 9.8666C7.2 10.7503 6.48366 11.4666 5.6 11.4666C4.71634 11.4666 4 10.7503 4 9.8666C4 8.98295 4.71634 8.2666 5.6 8.2666C6.48366 8.2666 7.2 8.98295 7.2 9.8666Z" fill="#606060"/>
<path d="M11.4667 9.8666C11.4667 10.7503 10.7503 11.4666 9.86667 11.4666C8.98301 11.4666 8.26667 10.7503 8.26667 9.8666C8.26667 8.98295 8.98301 8.2666 9.86667 8.2666C10.7503 8.2666 11.4667 8.98295 11.4667 9.8666Z" fill="#606060"/>
<path d="M15.7333 9.8666C15.7333 10.7503 15.017 11.4666 14.1333 11.4666C13.2497 11.4666 12.5333 10.7503 12.5333 9.8666C12.5333 8.98295 13.2497 8.2666 14.1333 8.2666C15.017 8.2666 15.7333 8.98295 15.7333 9.8666Z" fill="#606060"/>
<path d="M20 9.8666C20 10.7503 19.2837 11.4666 18.4 11.4666C17.5163 11.4666 16.8 10.7503 16.8 9.8666C16.8 8.98295 17.5163 8.2666 18.4 8.2666C19.2837 8.2666 20 8.98295 20 9.8666Z" fill="#606060"/>
<path d="M7.2 14.1333C7.2 15.0169 6.48366 15.7333 5.6 15.7333C4.71634 15.7333 4 15.0169 4 14.1333C4 13.2496 4.71634 12.5333 5.6 12.5333C6.48366 12.5333 7.2 13.2496 7.2 14.1333Z" fill="#606060"/>
<path d="M11.4667 14.1333C11.4667 15.0169 10.7503 15.7333 9.86667 15.7333C8.98301 15.7333 8.26667 15.0169 8.26667 14.1333C8.26667 13.2496 8.98301 12.5333 9.86667 12.5333C10.7503 12.5333 11.4667 13.2496 11.4667 14.1333Z" fill="#606060"/>
<path d="M15.7333 14.1333C15.7333 15.0169 15.017 15.7333 14.1333 15.7333C13.2497 15.7333 12.5333 15.0169 12.5333 14.1333C12.5333 13.2496 13.2497 12.5333 14.1333 12.5333C15.017 12.5333 15.7333 13.2496 15.7333 14.1333Z" fill="#606060"/>
<path d="M20 14.1333C20 15.0169 19.2837 15.7333 18.4 15.7333C17.5163 15.7333 16.8 15.0169 16.8 14.1333C16.8 13.2496 17.5163 12.5333 18.4 12.5333C19.2837 12.5333 20 13.2496 20 14.1333Z" fill="#606060"/>
</svg>
