<svg width="24" height="24" viewBox="0 0 24 24" fill="none" xmlns="http://www.w3.org/2000/svg">
<path d="M12.8182 5.00565C13.2164 5.05546 13.4987 5.41695 13.4489 5.81251L11.9943 17.368C11.9442 17.7635 11.5801 18.0438 11.1818 17.9943C10.7836 17.9445 10.5013 17.583 10.5511 17.1875L12.0057 5.63196C12.0558 5.23653 12.4199 4.95621 12.8182 5.00565ZM8.6875 8.01021C9.0217 7.78895 9.47322 7.87863 9.69602 8.21051C9.91882 8.54239 9.82852 8.99077 9.49432 9.21203L6.03835 11.5L9.49432 13.788C9.82852 14.0092 9.91882 14.4576 9.69602 14.7895C9.47322 15.1214 9.0217 15.211 8.6875 14.9898L4.32386 12.1009C4.12154 11.967 4 11.7415 4 11.5C4 11.2585 4.12154 11.033 4.32386 10.8991L8.6875 8.01021ZM14.304 8.21051C14.5268 7.87863 14.9783 7.78895 15.3125 8.01021L19.6761 10.8991C19.8785 11.033 20 11.2585 20 11.5C20 11.7415 19.8785 11.967 19.6761 12.1009L15.3125 14.9898C14.9783 15.211 14.5268 15.1214 14.304 14.7895C14.0812 14.4576 14.1715 14.0092 14.5057 13.788L17.9616 11.5L14.5057 9.21203C14.1715 8.99077 14.0812 8.54239 14.304 8.21051Z" fill="#E9E9E9"/>
</svg>
