<svg width="24" height="24" viewBox="0 0 24 24" fill="none" xmlns="http://www.w3.org/2000/svg">
<path d="M18.5455 7.74993C18.5455 7.36995 18.4286 6.78354 18.1004 6.31343C17.7988 5.88156 17.2902 5.49997 16.3636 5.49997H7.63636C7.2679 5.49997 6.69924 5.62047 6.24337 5.95895C5.82458 6.26989 5.45455 6.79438 5.45455 7.74993V13.2498C5.45455 13.7239 5.62364 14.1423 5.94602 14.4471C6.26988 14.7532 6.80863 14.9998 7.63636 14.9998H10.5455C10.9471 14.9998 11.2727 15.3356 11.2727 15.7498V17.4392L13.4252 15.2195L13.536 15.1258C13.6546 15.0442 13.7948 14.9998 13.9394 14.9998H16.3636C17.238 14.9998 17.7703 14.795 18.0748 14.5281C18.359 14.2788 18.5455 13.8866 18.5455 13.2498V7.74993ZM20 13.2498C20 14.2128 19.7014 15.071 19.0161 15.6716C18.351 16.2544 17.4284 16.4998 16.3636 16.4998H14.2405L11.0597 19.78C10.8517 19.9944 10.5388 20.0591 10.267 19.943C9.99528 19.827 9.81818 19.553 9.81818 19.2497V16.4998H7.63636C6.52477 16.4998 5.60891 16.163 4.96307 15.5525C4.31581 14.9406 4 14.109 4 13.2498V7.74993C4 6.30557 4.59971 5.33024 5.39299 4.7412C6.14924 4.17969 7.03513 4 7.63636 4H16.3636C17.7643 4 18.71 4.61844 19.2813 5.43649C19.8257 6.21636 20 7.12992 20 7.74993V13.2498Z" fill="#E9E9E9"/>
<path d="M11.9995 12C12.5518 12 12.9995 12.4477 12.9995 13C12.9995 13.5523 12.5518 14 11.9995 14C11.4474 13.9998 10.9995 13.5521 10.9995 13C10.9995 12.4479 11.4474 12.0002 11.9995 12Z" fill="#E9E9E9"/>
<path d="M12.4995 6.5C12.8995 6.5 12.9995 6.83333 12.9995 7L12.4995 10.5C12.4995 10.6667 12.3995 11 11.9995 11C11.5998 10.9998 11.4995 10.6666 11.4995 10.5C11.2882 8.8335 10.8924 7.40014 10.9995 7C11.1065 6.60046 11.3773 6.50023 11.4995 6.5H12.4995Z" fill="#E9E9E9"/>
</svg>
