<svg width="24" height="24" viewBox="0 0 24 24" fill="none" xmlns="http://www.w3.org/2000/svg">
<path d="M9.93175 13.7733C9.97144 13.5834 10.1554 13.4618 10.3425 13.502C10.5296 13.5423 10.6493 13.729 10.6097 13.9189L9.39721 19.721C9.35752 19.911 9.1736 20.0325 8.9865 19.9923C8.7994 19.952 8.67964 19.7653 8.71923 19.5754L9.93175 13.7733ZM13.6535 13.5044C13.8394 13.4587 14.0266 13.5746 14.0717 13.7633L15.4574 19.5655C15.5024 19.7542 15.3882 19.9442 15.2023 19.9899C15.0164 20.0356 14.8292 19.9197 14.7842 19.731L13.3984 13.9288C13.3534 13.7401 13.4676 13.5501 13.6535 13.5044ZM13.7351 10.1538C13.7351 9.18275 12.9595 8.39557 12.0029 8.39557C11.0463 8.39557 10.2707 9.18275 10.2707 10.1538C10.2707 11.1248 11.0463 11.912 12.0029 11.912C12.9595 11.912 13.7351 11.1248 13.7351 10.1538ZM11.6565 6.2857V4.35165C11.6565 4.15744 11.8116 4 12.0029 4C12.1942 4 12.3493 4.15744 12.3493 4.35165V6.2857C12.3493 6.47991 12.1942 6.63734 12.0029 6.63734C11.8116 6.63734 11.6565 6.47991 11.6565 6.2857ZM14.4279 10.1538C14.4279 11.5133 13.3422 12.6153 12.0029 12.6153C10.6636 12.6153 9.57787 11.5133 9.57787 10.1538C9.57787 8.79434 10.6636 7.69228 12.0029 7.69228C13.3422 7.69228 14.4279 8.79434 14.4279 10.1538Z" fill="#EFEFEF"/>
</svg>
