<svg width="24" height="24" viewBox="0 0 24 24" fill="none" xmlns="http://www.w3.org/2000/svg">
<path d="M14.1818 14.25C14.1818 13.2945 13.8122 12.7695 13.3935 12.4585C12.9376 12.12 12.3685 12 12 12C11.6315 12 11.0624 12.12 10.6065 12.4585C10.1878 12.7695 9.8182 13.2945 9.8182 14.25C9.8182 15.2055 10.1878 15.7305 10.6065 16.0415C11.0624 16.38 11.6315 16.5 12 16.5C12.3685 16.5 12.9376 16.38 13.3935 16.0415C13.8122 15.7305 14.1818 15.2055 14.1818 14.25ZM12 6C16.7786 6 19.2334 9.83726 19.8778 10.834C20.1006 11.1786 20.0103 11.6443 19.6761 11.874C19.3419 12.1038 18.8904 12.0107 18.6676 11.666C18.019 10.6627 15.9486 7.5 12 7.5C8.05137 7.5 5.98102 10.6627 5.33244 11.666C5.10964 12.0107 4.65813 12.1038 4.32393 11.874C3.98973 11.6443 3.89942 11.1786 4.12222 10.834C4.76656 9.83726 7.22143 6 12 6ZM15.6363 14.25C15.6363 15.6944 15.0362 16.6697 14.2429 17.2588C13.4867 17.8202 12.6012 18 12 18C11.3988 18 10.5133 17.8202 9.75712 17.2588C8.9638 16.6697 8.36367 15.6944 8.36367 14.25C8.36367 12.8056 8.9638 11.8303 9.75712 11.2412C10.5133 10.6798 11.3988 10.5 12 10.5C12.6012 10.5 13.4867 10.6798 14.2429 11.2412C15.0362 11.8303 15.6363 12.8056 15.6363 14.25Z" fill="#E9E9E9"/>
</svg>
