<svg width="24" height="24" viewBox="0 0 24 24" fill="none" xmlns="http://www.w3.org/2000/svg">
<path d="M18.7692 10.5714C18.7692 10.1443 18.3775 9.83635 17.9844 9.95368L15.6923 10.6367V14.2277L17.9111 15.2221C18.317 15.4038 18.7688 15.0932 18.7692 14.632V10.5714ZM20 14.632C19.9996 16.0162 18.6447 16.9489 17.4267 16.4036L15.631 15.6C15.5233 16.052 15.2802 16.3923 14.9748 16.6221C14.5913 16.9103 14.1497 17 13.8462 17H5.84615C5.15328 17 4.66048 16.6838 4.36178 16.2504C4.08583 15.8499 4 15.3885 4 15.0714V9.92857C4 9.20477 4.30268 8.68997 4.71755 8.37793C5.10097 8.08967 5.54263 8 5.84615 8H13.8462C14.539 8 15.0318 8.31619 15.3305 8.74958C15.4585 8.93529 15.5443 9.1345 15.601 9.32589L17.6466 8.71694C18.826 8.36494 20 9.29013 20 10.5714V14.632ZM5.23077 15.0714C5.23077 15.1828 5.26748 15.3645 5.36058 15.4996C5.4311 15.6019 5.55441 15.7143 5.84615 15.7143H13.8462C13.9528 15.7143 14.1267 15.6759 14.256 15.5787C14.354 15.505 14.4615 15.3762 14.4615 15.0714V9.92857C14.4615 9.81717 14.4248 9.63552 14.3317 9.50042C14.2612 9.39809 14.1379 9.28571 13.8462 9.28571H5.84615C5.73951 9.28571 5.56562 9.32407 5.4363 9.42132C5.33835 9.49499 5.23077 9.62381 5.23077 9.92857V15.0714Z" fill="#E9E9E9"/>
</svg>
