<svg width="24" height="24" viewBox="0 0 24 24" fill="none" xmlns="http://www.w3.org/2000/svg">
<path d="M14.6 8C14.6 6.52724 13.4359 5.33333 12 5.33333C10.5641 5.33333 9.4 6.52724 9.4 8V13.3333C9.4 14.8061 10.5641 16 12 16C13.3463 16 14.4531 14.9504 14.586 13.6055L14.6 13.3333V8ZM15.9 13.3333C15.9 15.5425 14.1539 17.3333 12 17.3333C9.84609 17.3333 8.1 15.5425 8.1 13.3333V8C8.1 5.79086 9.84609 4 12 4C14.1539 4 15.9 5.79086 15.9 8V13.3333Z" fill="#E9E9E9"/>
<path d="M5.5 13.3333C5.5 12.9651 5.79101 12.6667 6.15 12.6667C6.50899 12.6667 6.8 12.9651 6.8 13.3333C6.8 14.7478 7.34825 16.104 8.32344 17.1042C9.29863 18.1044 10.6209 18.6667 12 18.6667C13.3791 18.6667 14.7014 18.1044 15.6766 17.1042C16.6518 16.104 17.2 14.7478 17.2 13.3333C17.2 12.9651 17.491 12.6667 17.85 12.6667C18.209 12.6667 18.5 12.9651 18.5 13.3333C18.5 15.1014 17.8147 16.7966 16.5957 18.0469C15.3767 19.2971 13.7239 20 12 20C10.2761 20 8.62328 19.2971 7.4043 18.0469C6.18531 16.7966 5.5 15.1014 5.5 13.3333Z" fill="#E9E9E9"/>
</svg>
