<svg width="24" height="24" viewBox="0 0 24 24" fill="none" xmlns="http://www.w3.org/2000/svg">
<path d="M4.18024 4.18024C4.42057 3.93992 4.81012 3.93992 5.05044 4.18024L19.8198 18.9496C20.0601 19.1899 20.0601 19.5794 19.8198 19.8198C19.5794 20.0601 19.1899 20.0601 18.9496 19.8198L4.18024 5.05044C3.93992 4.81012 3.93992 4.42057 4.18024 4.18024Z" fill="#E9E9E9"/>
<path d="M6.46155 12.6154C6.80142 12.6154 7.07694 12.891 7.07694 13.2308C7.07694 14.5365 7.596 15.7884 8.51926 16.7116C9.44252 17.6349 10.6944 18.1539 12 18.1539C12.9755 18.1539 13.9204 17.8634 14.7212 17.3318L15.6046 18.2152C14.5621 18.9694 13.3032 19.3847 12 19.3847C10.3679 19.3847 8.80314 18.7359 7.64906 17.5818C6.49498 16.4277 5.84616 14.8629 5.84616 13.2308C5.84616 12.891 6.12168 12.6154 6.46155 12.6154Z" fill="#E9E9E9"/>
<path d="M9.53849 12.1491V13.2308C9.53849 14.5903 10.6406 15.6924 12 15.6924C12.3208 15.6924 12.6266 15.6297 12.9075 15.5181L13.8258 16.4364C13.2869 16.744 12.665 16.9232 12 16.9232C9.96083 16.9232 8.30772 15.27 8.30772 13.2308V10.9183L9.53849 12.1491Z" fill="#E9E9E9"/>
<path d="M17.5385 12.6154C17.8784 12.6154 18.1539 12.891 18.1539 13.2308C18.1539 13.9118 18.0388 14.5802 17.8234 15.2128L16.8234 14.2128C16.8888 13.8919 16.9232 13.5632 16.9232 13.2308C16.9232 12.891 17.1987 12.6154 17.5385 12.6154Z" fill="#E9E9E9"/>
<path d="M12 4.61539C14.0393 4.61539 15.6924 6.2685 15.6924 8.30772V13.0818L14.4616 11.851V8.30772C14.4616 6.94824 13.3595 5.84616 12 5.84616C11.0413 5.84616 10.2118 6.39481 9.80532 7.19473L8.90628 6.29569C9.56502 5.28486 10.7035 4.61539 12 4.61539Z" fill="#E9E9E9"/>
</svg>
