<svg width="24" height="24" viewBox="0 0 24 24" fill="none" xmlns="http://www.w3.org/2000/svg">
<path d="M4 16.3077V7.69231C4 5.6531 5.6531 4 7.69231 4V5.23077C6.33284 5.23077 5.23077 6.33284 5.23077 7.69231V16.3077L5.24399 16.5589C5.36985 17.8003 6.41766 18.7692 7.69231 18.7692H16.3077L16.5589 18.756C17.7177 18.6385 18.6385 17.7177 18.756 16.5589L18.7692 16.3077V7.69231C18.7692 6.41766 17.8003 5.36985 16.5589 5.24399L16.3077 5.23077V4C18.3469 4 20 5.6531 20 7.69231V16.3077C20 18.3469 18.3469 20 16.3077 20H7.69231C5.6531 20 4 18.3469 4 16.3077ZM16.3077 4V5.23077H7.69231V4H16.3077Z" fill="#E9E9E9"/>
</svg>
